<?xml version="1.0" encoding="UTF-8"?>
<svg xmlns="http://www.w3.org/2000/svg" xmlns:xlink="http://www.w3.org/1999/xlink" width="135px" height="57px" viewBox="0 0 134 57" version="1.1">
<g id="surface1">
<path style="fill-rule:nonzero;fill:rgb(86.27451%,22.352941%,32.941176%);fill-opacity:1;stroke-width:1;stroke-linecap:butt;stroke-linejoin:miter;stroke:rgb(86.27451%,22.352941%,32.941176%);stroke-opacity:1;stroke-miterlimit:4;" d="M 109.003792 18.004661 C 109.003792 18.004661 109.003792 46.995776 109.003792 46.995776 C 132.474369 50.626262 145.500645 75.564742 129.479701 94.96251 C 126.686089 98.35026 122.04065 101.716902 117.998378 103.468822 C 115.786768 104.429212 111.310639 105.083544 109.987906 106.729927 C 108.739246 108.312987 109.003792 112.027902 109.003792 114.001451 C 109.003792 114.001451 109.003792 134.000782 109.003792 134.000782 C 122.305197 131.605084 125.754885 133.262021 139.00338 125.66333 C 161.362861 112.851094 170.812466 86.456198 165.341642 62.00319 C 163.436906 53.528539 160.611548 48.019489 155.574581 41.001254 C 153.92381 38.700539 149.225461 33.740283 149.61699 30.996311 C 149.870955 29.223284 151.765109 27.302503 152.929114 26.014948 C 159.246488 19.070589 165.098259 20.843617 173.997608 21.001923 C 183.955143 21.19189 183.986888 29.286606 191.976196 26.257684 C 200.484016 23.02824 199.140119 11.070856 189.997388 10.152681 C 183.362558 9.477242 182.717064 13.508769 177.955225 14.690788 C 173.172222 15.872806 158.357611 13.814828 153.997883 16.020559 C 149.109061 18.500687 146.199048 25.540029 141.998048 26.278791 C 139.638292 26.70094 133.712447 23.102116 131.00349 22.057296 C 124.019459 19.408308 116.453425 18.067984 109.003792 18.004661 Z M 67.00437 119.995974 C 63.893301 123.394277 59.163208 129.874271 55.004535 131.404563 C 52.591869 132.291077 44.962345 132.006126 41.999423 131.995572 C 39.957123 131.995572 36.973037 132.122217 35.089465 131.22515 C 33.047165 130.63414 22.825083 120.164833 17.184949 131.22515 C 13.872825 137.409639 19.216667 143.657452 25.999643 142.844814 C 32.518071 142.053284 30.24297 138.074525 41.004727 138.000649 C 44.549652 137.979541 56.380177 138.391137 58.962152 137.399086 C 62.86686 135.900455 69.21598 127.774078 71.004315 123.99584 C 88.538465 132.438829 85.882417 131.478439 105.003847 134.000782 C 105.003847 134.000782 105.003847 106.001719 105.003847 106.001719 C 96.390209 104.260352 90.168072 101.843546 84.210482 94.994171 C 67.702773 76.007999 81.152323 50.383526 105.003847 46.995776 C 105.003847 46.995776 105.003847 18.004661 105.003847 18.004661 C 89.141632 18.14186 73.014869 24.15749 62.168457 36.009336 C 45.184564 54.583913 42.04175 81.88643 53.777038 103.996509 C 57.13149 110.307643 61.184344 115.785033 67.00437 119.995974 Z M 317.000932 94.00212 C 317.000932 94.00212 297.995903 94.00212 297.995903 94.00212 C 297.995903 94.00212 297.995903 107.004324 297.995903 107.004324 C 298.006485 112.249531 297.826593 115.605619 301.392681 119.964312 C 308.546022 128.681699 330.439901 129.578767 338.958303 122.6133 C 344.217489 118.296822 345.825933 112.545036 345.995243 106.001719 C 346.175135 97.75925 344.693673 92.577366 339.476814 86.002387 C 335.984798 81.601479 331.085395 77.358877 325.995518 74.99484 C 325.995518 74.99484 345.995243 74.002789 345.995243 74.002789 C 345.995243 64.947683 347.942306 53.802937 339.96358 47.417926 C 331.773216 40.874609 309.731191 41.191221 302.387377 49.212061 C 298.345104 53.623523 297.879502 59.333095 298.006485 65.000451 C 298.228704 74.498814 301.964102 80.514444 309.001042 86.709488 C 314.112083 91.20538 322.408266 96.566678 324.990241 103.004457 C 327.868508 110.138784 323.085505 114.497477 319.561744 111.384124 C 316.260202 108.481847 317.000932 98.244722 317.000932 94.00212 Z M 193.997333 45.00112 C 193.997333 45.00112 193.997333 126.00105 193.997333 126.00105 C 193.997333 126.00105 213.002362 126.00105 213.002362 126.00105 C 213.002362 126.00105 213.002362 88.999649 213.002362 88.999649 C 229.562981 91.690852 217.277436 114.233633 224.145066 123.689782 C 226.748205 127.29916 240.462302 126.00105 245.001922 126.00105 C 242.726821 119.19389 242.039 119.584378 241.996673 111.996241 C 241.954345 100.566544 245.086577 85.675222 231.002115 82.002521 C 233.795727 80.503891 236.144901 79.416856 238.144874 76.810083 C 244.229446 68.873673 243.425224 52.473166 233.996783 47.439033 C 226.779951 43.586919 203.214137 45.00112 193.997333 45.00112 Z M 245.996618 45.00112 C 245.996618 45.00112 245.996618 126.00105 245.996618 126.00105 C 259.784788 126.00105 287.244728 129.21994 292.884862 112.998846 C 294.017121 109.758849 293.974794 107.352597 293.995958 103.996509 C 293.995958 103.996509 293.995958 67.997713 293.995958 67.997713 C 293.985376 60.156286 293.202318 52.504827 285.974904 47.723984 C 281.858559 44.990566 276.747518 45.011674 271.99626 45.00112 C 271.99626 45.00112 245.996618 45.00112 245.996618 45.00112 Z M 213.002362 77.00005 C 213.002362 77.00005 213.002362 57.000719 213.002362 57.000719 C 215.330373 57.254008 217.626637 57.412315 219.520791 59.005929 C 222.727096 61.728793 222.780006 70.541163 220.261522 73.69673 C 218.441441 75.976338 215.668992 76.430148 213.002362 77.00005 Z M 265.996343 112.998846 C 265.996343 112.998846 265.996343 57.000719 265.996343 57.000719 C 274.049142 57.65505 274.906273 61.760454 275.00151 69.000318 C 275.00151 69.000318 275.00151 98.001986 275.00151 98.001986 C 274.990928 105.875074 275.414203 111.911811 265.996343 112.998846 Z M 325.995518 74.002789 C 322.080228 71.163834 318.492975 68.208787 318.133192 62.995241 C 317.646426 56.124759 323.191324 56.515247 324.831513 58.573226 C 326.588102 60.800064 325.995518 70.805007 325.995518 74.002789 Z M 325.995518 74.002789 " transform="matrix(0.369146,0,0,0.37013,0,0.00000504723)"/>
</g>
</svg>
